# xmcd CD database file
#
# Track frame offsets:
#	150
#	16968
#	51210
#	74453
#	96018
#	127443
#	152728
#	183095
#	211198
#	233110
#	255058
#	289983
#
# Disc length: 4182 seconds
#
# Revision: 0
# Processed by: cddbd v1.5.1PL2 Copyright (c) Steve Scherf et al.
# Submitted via: CDex 1.51
#
DISCID=a410540c
DTITLE=Various Artist - SWING JOURNAL GOLD DISC BEST VOL.2 Disc1
DYEAR=2003
DGENRE=Jazz
TTITLE0=LOOK FOR THE SILVER LINING（Kern - DeSylva）／DAVE BRUBECK
TTITLE1=A NIGHT IN TUNISIA（Gillespie - Paparelli）／CHARLIE PARKER
TTITLE2=A NIGHT AT TONY'S（Gigi Gryce）／ART FARMER
TTITLE3=WHAT IS THIS THING CALLED LOVE（Cole Porter）／HAMPTON HAWES
TTITLE4=SWEET BLANCHE（George Wallington）／GEORGE WALLINGTON
TTITLE5=OUR DELIGHT（Tadd Dameron）／GEORGE WALLINGTON
TTITLE6=ST. THOMAS（Sonny Rollins）／SONNY ROLLINS
TTITLE7=AMY ONE AND ONLY LOVE（Wood - Mellin）／ART TATUM
TTITLE8=CARAVAN（Mills - Tizol - Ellington）／THE KENNY DREW TRIO
TTITLE9=STABLEMATES（Benny Golson）／MAL WALDRON（Prestige）
TTITLE10=TIN TIN DEO（Chano Pozo）／ART PEPPER
TTITLE11=THERE IS NO GREATER LOVE（Jones - Symes）／SONNY ROLLINS
EXTD=YEAR: 2003.07.23
EXTT0=
EXTT1=
EXTT2=
EXTT3=
EXTT4=
EXTT5=
EXTT6=
EXTT7=
EXTT8=
EXTT9=
EXTT10=
EXTT11=
PLAYORDER=
